<?xml version="1.0" standalone="no"?>
<!DOCTYPE svg PUBLIC "-//W3C//DTD SVG 1.1//EN" "http://www.w3.org/Graphics/SVG/1.1/DTD/svg11.dtd">
<svg width="154mm" height="434mm" viewBox="-52 -382 154 434" xmlns="http://www.w3.org/2000/svg" version="1.1">
<title>OpenSCAD Model</title>
<path d="
M 50,40.75 L 55,40.75 L 55,45.75 L 56.5451,45.5053 L 57.9389,44.7951 L 59.0451,43.6889
 L 59.7553,42.2951 L 60,40.75 L 60,13.25 L 59.7553,11.7049 L 59.0451,10.3111 L 57.9389,9.20491
 L 56.5451,8.49471 L 55,8.25 L 55,13.25 L 50,13.25 L 50,2 L 49,2
 L 49,-0 L 50,-0 L 50,-1 L 52,-1 L 52,-0 L 102,-0
 L 102,-330 L 52,-330 L 52,-329 L 50,-329 L 50,-330 L 49,-330
 L 49,-332 L 50,-332 L 50,-343.25 L 55,-343.25 L 55,-338.25 L 56.5451,-338.495
 L 57.9389,-339.205 L 59.0451,-340.311 L 59.7553,-341.705 L 60,-343.25 L 60,-370.75 L 59.7553,-372.295
 L 59.0451,-373.689 L 57.9389,-374.795 L 56.5451,-375.505 L 55,-375.75 L 55,-370.75 L 50,-370.75
 L 50,-382 L 0,-382 L 0,-370.75 L -5,-370.75 L -5,-375.75 L -6.54507,-375.505
 L -7.93892,-374.795 L -9.04507,-373.689 L -9.75528,-372.295 L -10,-370.75 L -10,-343.25 L -9.75528,-341.705
 L -9.04507,-340.311 L -7.93892,-339.205 L -6.54507,-338.495 L -5,-338.25 L -5,-343.25 L 0,-343.25
 L 0,-332 L 1,-332 L 1,-330 L 0,-330 L 0,-329 L -2,-329
 L -2,-330 L -52,-330 L -52,-0 L -2,-0 L -2,-1 L 0,-1
 L 0,-0 L 1,-0 L 1,2 L 0,2 L 0,13.25 L -5,13.25
 L -5,8.25 L -6.54507,8.49471 L -7.93892,9.20491 L -9.04507,10.3111 L -9.75528,11.7049 L -10,13.25
 L -10,40.75 L -9.75528,42.2951 L -9.04507,43.6889 L -7.93892,44.7951 L -6.54507,45.5053 L -5,45.75
 L -5,40.75 L 0,40.75 L 0,52 L 50,52 z
M 60.75,-324 L 60.441,-324.049 L 60.1622,-324.191 L 59.941,-324.412 L 59.7989,-324.691 L 59.75,-325
 L 59.7989,-325.309 L 59.941,-325.588 L 60.1622,-325.809 L 60.441,-325.951 L 60.75,-326 L 93.25,-326
 L 93.559,-325.951 L 93.8378,-325.809 L 94.059,-325.588 L 94.201,-325.309 L 94.25,-325 L 94.201,-324.691
 L 94.059,-324.412 L 93.8378,-324.191 L 93.559,-324.049 L 93.25,-324 z
M -43.25,-324 L -43.559,-324.049 L -43.8378,-324.191 L -44.059,-324.412 L -44.201,-324.691 L -44.25,-325
 L -44.201,-325.309 L -44.059,-325.588 L -43.8378,-325.809 L -43.559,-325.951 L -43.25,-326 L -10.75,-326
 L -10.441,-325.951 L -10.1622,-325.809 L -9.94098,-325.588 L -9.79893,-325.309 L -9.75,-325 L -9.79893,-324.691
 L -9.94098,-324.412 L -10.1622,-324.191 L -10.441,-324.049 L -10.75,-324 z
M 94.691,-147.799 L 94.4122,-147.941 L 94.191,-148.162 L 94.0489,-148.441 L 94,-148.75 L 94,-181.25
 L 94.0489,-181.559 L 94.191,-181.838 L 94.4122,-182.059 L 94.691,-182.201 L 95,-182.25 L 95.309,-182.201
 L 95.5878,-182.059 L 95.809,-181.838 L 95.951,-181.559 L 96,-181.25 L 96,-148.75 L 95.951,-148.441
 L 95.809,-148.162 L 95.5878,-147.941 L 95.309,-147.799 L 95,-147.75 z
M -45.309,-147.799 L -45.5878,-147.941 L -45.809,-148.162 L -45.951,-148.441 L -46,-148.75 L -46,-181.25
 L -45.951,-181.559 L -45.809,-181.838 L -45.5878,-182.059 L -45.309,-182.201 L -45,-182.25 L -44.691,-182.201
 L -44.4122,-182.059 L -44.191,-181.838 L -44.0489,-181.559 L -44,-181.25 L -44,-148.75 L -44.0489,-148.441
 L -44.191,-148.162 L -44.4122,-147.941 L -44.691,-147.799 L -45,-147.75 z
M 60.75,-4 L 60.441,-4.04893 L 60.1622,-4.19098 L 59.941,-4.4122 L 59.7989,-4.69098 L 59.75,-5
 L 59.7989,-5.30901 L 59.941,-5.58778 L 60.1622,-5.80901 L 60.441,-5.95105 L 60.75,-6 L 93.25,-6
 L 93.559,-5.95105 L 93.8378,-5.80901 L 94.059,-5.58778 L 94.201,-5.30901 L 94.25,-5 L 94.201,-4.69098
 L 94.059,-4.4122 L 93.8378,-4.19098 L 93.559,-4.04893 L 93.25,-4 z
M -43.25,-4 L -43.559,-4.04893 L -43.8378,-4.19098 L -44.059,-4.4122 L -44.201,-4.69098 L -44.25,-5
 L -44.201,-5.30901 L -44.059,-5.58778 L -43.8378,-5.80901 L -43.559,-5.95105 L -43.25,-6 L -10.75,-6
 L -10.441,-5.95105 L -10.1622,-5.80901 L -9.94098,-5.58778 L -9.79893,-5.30901 L -9.75,-5 L -9.79893,-4.69098
 L -9.94098,-4.4122 L -10.1622,-4.19098 L -10.441,-4.04893 L -10.75,-4 z
" stroke="black" fill="lightgray" stroke-width="0.5"/>
</svg>
