<?xml version="1.0" standalone="no"?>
<!DOCTYPE svg PUBLIC "-//W3C//DTD SVG 1.1//EN" "http://www.w3.org/Graphics/SVG/1.1/DTD/svg11.dtd">
<svg width="154mm" height="224mm" viewBox="-52 -172 154 224" xmlns="http://www.w3.org/2000/svg" version="1.1">
<title>OpenSCAD Model</title>
<path d="
M 50,40.75 L 55,40.75 L 55,45.75 L 56.5451,45.5053 L 57.9389,44.7951 L 59.0451,43.6889
 L 59.7553,42.2951 L 60,40.75 L 60,13.25 L 59.7553,11.7049 L 59.0451,10.3111 L 57.9389,9.20491
 L 56.5451,8.49471 L 55,8.25 L 55,13.25 L 50,13.25 L 50,2 L 49,2
 L 49,-0 L 50,-0 L 50,-1 L 52,-1 L 52,-0 L 102,-0
 L 102,-120 L 52,-120 L 52,-119 L 50,-119 L 50,-120 L 49,-120
 L 49,-122 L 50,-122 L 50,-133.25 L 55,-133.25 L 55,-128.25 L 56.5451,-128.495
 L 57.9389,-129.205 L 59.0451,-130.311 L 59.7553,-131.705 L 60,-133.25 L 60,-160.75 L 59.7553,-162.295
 L 59.0451,-163.689 L 57.9389,-164.795 L 56.5451,-165.505 L 55,-165.75 L 55,-160.75 L 50,-160.75
 L 50,-172 L 0,-172 L 0,-160.75 L -5,-160.75 L -5,-165.75 L -6.54507,-165.505
 L -7.93892,-164.795 L -9.04507,-163.689 L -9.75528,-162.295 L -10,-160.75 L -10,-133.25 L -9.75528,-131.705
 L -9.04507,-130.311 L -7.93892,-129.205 L -6.54507,-128.495 L -5,-128.25 L -5,-133.25 L 0,-133.25
 L 0,-122 L 1,-122 L 1,-120 L 0,-120 L 0,-119 L -2,-119
 L -2,-120 L -52,-120 L -52,-0 L -2,-0 L -2,-1 L 0,-1
 L 0,-0 L 1,-0 L 1,2 L 0,2 L 0,13.25 L -5,13.25
 L -5,8.25 L -6.54507,8.49471 L -7.93892,9.20491 L -9.04507,10.3111 L -9.75528,11.7049 L -10,13.25
 L -10,40.75 L -9.75528,42.2951 L -9.04507,43.6889 L -7.93892,44.7951 L -6.54507,45.5053 L -5,45.75
 L -5,40.75 L 0,40.75 L 0,52 L 50,52 z
M -43.25,-114 L -43.559,-114.049 L -43.8378,-114.191 L -44.059,-114.412 L -44.201,-114.691 L -44.25,-115
 L -44.201,-115.309 L -44.059,-115.588 L -43.8378,-115.809 L -43.559,-115.951 L -43.25,-116 L -10.75,-116
 L -10.441,-115.951 L -10.1622,-115.809 L -9.94098,-115.588 L -9.79893,-115.309 L -9.75,-115 L -9.79893,-114.691
 L -9.94098,-114.412 L -10.1622,-114.191 L -10.441,-114.049 L -10.75,-114 z
M 60.75,-114 L 60.441,-114.049 L 60.1622,-114.191 L 59.941,-114.412 L 59.7989,-114.691 L 59.75,-115
 L 59.7989,-115.309 L 59.941,-115.588 L 60.1622,-115.809 L 60.441,-115.951 L 60.75,-116 L 93.25,-116
 L 93.559,-115.951 L 93.8378,-115.809 L 94.059,-115.588 L 94.201,-115.309 L 94.25,-115 L 94.201,-114.691
 L 94.059,-114.412 L 93.8378,-114.191 L 93.559,-114.049 L 93.25,-114 z
M 94.691,-42.7989 L 94.4122,-42.941 L 94.191,-43.1622 L 94.0489,-43.441 L 94,-43.75 L 94,-76.25
 L 94.0489,-76.559 L 94.191,-76.8378 L 94.4122,-77.059 L 94.691,-77.201 L 95,-77.25 L 95.309,-77.201
 L 95.5878,-77.059 L 95.809,-76.8378 L 95.951,-76.559 L 96,-76.25 L 96,-43.75 L 95.951,-43.441
 L 95.809,-43.1622 L 95.5878,-42.941 L 95.309,-42.7989 L 95,-42.75 z
M -45.309,-42.7989 L -45.5878,-42.941 L -45.809,-43.1622 L -45.951,-43.441 L -46,-43.75 L -46,-76.25
 L -45.951,-76.559 L -45.809,-76.8378 L -45.5878,-77.059 L -45.309,-77.201 L -45,-77.25 L -44.691,-77.201
 L -44.4122,-77.059 L -44.191,-76.8378 L -44.0489,-76.559 L -44,-76.25 L -44,-43.75 L -44.0489,-43.441
 L -44.191,-43.1622 L -44.4122,-42.941 L -44.691,-42.7989 L -45,-42.75 z
M 60.75,-4 L 60.441,-4.04893 L 60.1622,-4.19098 L 59.941,-4.4122 L 59.7989,-4.69098 L 59.75,-5
 L 59.7989,-5.30901 L 59.941,-5.58778 L 60.1622,-5.80901 L 60.441,-5.95105 L 60.75,-6 L 93.25,-6
 L 93.559,-5.95105 L 93.8378,-5.80901 L 94.059,-5.58778 L 94.201,-5.30901 L 94.25,-5 L 94.201,-4.69098
 L 94.059,-4.4122 L 93.8378,-4.19098 L 93.559,-4.04893 L 93.25,-4 z
M -43.25,-4 L -43.559,-4.04893 L -43.8378,-4.19098 L -44.059,-4.4122 L -44.201,-4.69098 L -44.25,-5
 L -44.201,-5.30901 L -44.059,-5.58778 L -43.8378,-5.80901 L -43.559,-5.95105 L -43.25,-6 L -10.75,-6
 L -10.441,-5.95105 L -10.1622,-5.80901 L -9.94098,-5.58778 L -9.79893,-5.30901 L -9.75,-5 L -9.79893,-4.69098
 L -9.94098,-4.4122 L -10.1622,-4.19098 L -10.441,-4.04893 L -10.75,-4 z
" stroke="black" fill="lightgray" stroke-width="0.5"/>
</svg>
