<?xml version="1.0" standalone="no"?>
<!DOCTYPE svg PUBLIC "-//W3C//DTD SVG 1.1//EN" "http://www.w3.org/Graphics/SVG/1.1/DTD/svg11.dtd">
<svg width="154mm" height="334mm" viewBox="-52 -282 154 334" xmlns="http://www.w3.org/2000/svg" version="1.1">
<title>OpenSCAD Model</title>
<path d="
M 50,40.75 L 55,40.75 L 55,45.75 L 56.5451,45.5053 L 57.9389,44.7951 L 59.0451,43.6889
 L 59.7553,42.2951 L 60,40.75 L 60,13.25 L 59.7553,11.7049 L 59.0451,10.3111 L 57.9389,9.20491
 L 56.5451,8.49471 L 55,8.25 L 55,13.25 L 50,13.25 L 50,2 L 49,2
 L 49,-0 L 50,-0 L 50,-1 L 52,-1 L 52,-0 L 102,-0
 L 102,-230 L 52,-230 L 52,-229 L 50,-229 L 50,-230 L 49,-230
 L 49,-232 L 50,-232 L 50,-243.25 L 55,-243.25 L 55,-238.25 L 56.5451,-238.495
 L 57.9389,-239.205 L 59.0451,-240.311 L 59.7553,-241.705 L 60,-243.25 L 60,-270.75 L 59.7553,-272.295
 L 59.0451,-273.689 L 57.9389,-274.795 L 56.5451,-275.505 L 55,-275.75 L 55,-270.75 L 50,-270.75
 L 50,-282 L 0,-282 L 0,-270.75 L -5,-270.75 L -5,-275.75 L -6.54507,-275.505
 L -7.93892,-274.795 L -9.04507,-273.689 L -9.75528,-272.295 L -10,-270.75 L -10,-243.25 L -9.75528,-241.705
 L -9.04507,-240.311 L -7.93892,-239.205 L -6.54507,-238.495 L -5,-238.25 L -5,-243.25 L 0,-243.25
 L 0,-232 L 1,-232 L 1,-230 L 0,-230 L 0,-229 L -2,-229
 L -2,-230 L -52,-230 L -52,-0 L -2,-0 L -2,-1 L 0,-1
 L 0,-0 L 1,-0 L 1,2 L 0,2 L 0,13.25 L -5,13.25
 L -5,8.25 L -6.54507,8.49471 L -7.93892,9.20491 L -9.04507,10.3111 L -9.75528,11.7049 L -10,13.25
 L -10,40.75 L -9.75528,42.2951 L -9.04507,43.6889 L -7.93892,44.7951 L -6.54507,45.5053 L -5,45.75
 L -5,40.75 L 0,40.75 L 0,52 L 50,52 z
M 60.75,-224 L 60.441,-224.049 L 60.1622,-224.191 L 59.941,-224.412 L 59.7989,-224.691 L 59.75,-225
 L 59.7989,-225.309 L 59.941,-225.588 L 60.1622,-225.809 L 60.441,-225.951 L 60.75,-226 L 93.25,-226
 L 93.559,-225.951 L 93.8378,-225.809 L 94.059,-225.588 L 94.201,-225.309 L 94.25,-225 L 94.201,-224.691
 L 94.059,-224.412 L 93.8378,-224.191 L 93.559,-224.049 L 93.25,-224 z
M -43.25,-224 L -43.559,-224.049 L -43.8378,-224.191 L -44.059,-224.412 L -44.201,-224.691 L -44.25,-225
 L -44.201,-225.309 L -44.059,-225.588 L -43.8378,-225.809 L -43.559,-225.951 L -43.25,-226 L -10.75,-226
 L -10.441,-225.951 L -10.1622,-225.809 L -9.94098,-225.588 L -9.79893,-225.309 L -9.75,-225 L -9.79893,-224.691
 L -9.94098,-224.412 L -10.1622,-224.191 L -10.441,-224.049 L -10.75,-224 z
M -45.309,-97.7989 L -45.5878,-97.941 L -45.809,-98.1622 L -45.951,-98.441 L -46,-98.75 L -46,-131.25
 L -45.951,-131.559 L -45.809,-131.838 L -45.5878,-132.059 L -45.309,-132.201 L -45,-132.25 L -44.691,-132.201
 L -44.4122,-132.059 L -44.191,-131.838 L -44.0489,-131.559 L -44,-131.25 L -44,-98.75 L -44.0489,-98.441
 L -44.191,-98.1622 L -44.4122,-97.941 L -44.691,-97.7989 L -45,-97.75 z
M 94.691,-97.7989 L 94.4122,-97.941 L 94.191,-98.1622 L 94.0489,-98.441 L 94,-98.75 L 94,-131.25
 L 94.0489,-131.559 L 94.191,-131.838 L 94.4122,-132.059 L 94.691,-132.201 L 95,-132.25 L 95.309,-132.201
 L 95.5878,-132.059 L 95.809,-131.838 L 95.951,-131.559 L 96,-131.25 L 96,-98.75 L 95.951,-98.441
 L 95.809,-98.1622 L 95.5878,-97.941 L 95.309,-97.7989 L 95,-97.75 z
M 60.75,-4 L 60.441,-4.04893 L 60.1622,-4.19098 L 59.941,-4.4122 L 59.7989,-4.69098 L 59.75,-5
 L 59.7989,-5.30901 L 59.941,-5.58778 L 60.1622,-5.80901 L 60.441,-5.95105 L 60.75,-6 L 93.25,-6
 L 93.559,-5.95105 L 93.8378,-5.80901 L 94.059,-5.58778 L 94.201,-5.30901 L 94.25,-5 L 94.201,-4.69098
 L 94.059,-4.4122 L 93.8378,-4.19098 L 93.559,-4.04893 L 93.25,-4 z
M -43.25,-4 L -43.559,-4.04893 L -43.8378,-4.19098 L -44.059,-4.4122 L -44.201,-4.69098 L -44.25,-5
 L -44.201,-5.30901 L -44.059,-5.58778 L -43.8378,-5.80901 L -43.559,-5.95105 L -43.25,-6 L -10.75,-6
 L -10.441,-5.95105 L -10.1622,-5.80901 L -9.94098,-5.58778 L -9.79893,-5.30901 L -9.75,-5 L -9.79893,-4.69098
 L -9.94098,-4.4122 L -10.1622,-4.19098 L -10.441,-4.04893 L -10.75,-4 z
" stroke="black" fill="lightgray" stroke-width="0.5"/>
</svg>
